<svg width="229" height="86" viewBox="0 0 229 86" fill="none" xmlns="http://www.w3.org/2000/svg">
<rect width="229" height="86" fill="none"/>
<g id="Login V01">
<path d="M-2608 -703C-2608 -704.105 -2607.1 -705 -2606 -705H102C103.104 -705 104 -704.105 104 -703V992C104 993.104 103.104 994 102 994H-2606C-2607.1 994 -2608 993.105 -2608 992V-703Z" fill="none"/>
<path d="M-2606 -703H102V-707H-2606V-703ZM102 -703V992H106V-703H102ZM102 992H-2606V996H102V992ZM-2606 992V-703H-2610V992H-2606ZM-2606 992H-2606H-2610C-2610 994.209 -2608.21 996 -2606 996V992ZM102 992V996C104.209 996 106 994.209 106 992H102ZM102 -703V-703H106C106 -705.209 104.209 -707 102 -707V-703ZM-2606 -707C-2608.21 -707 -2610 -705.209 -2610 -703H-2606V-703V-707Z" fill="none" fill-opacity="0.5"/>
</g>
<g id="LOGOS_iimp 1">
<path id="Vector" fill-rule="evenodd" clip-rule="evenodd" d="M10.3073 62.8362L34.2545 76.0276L58.2017 62.8362V9.46006H10.3073V62.8362ZM9.42114 63.4251V8.57617H59.0879V63.4251L34.2545 77.2149L9.42114 63.4251ZM16.2303 59.4213V15.5422H52.2763V59.4213L34.2545 69.3603L16.2303 59.4213ZM15.3429 60.0137V14.6547H53.1661V60.0137L34.2545 70.5404L15.3429 60.0137ZM18.4309 46.1558L21.8372 43.7872L23.1337 44.824L26.6498 42.3013L31.3109 46.0805L34.3452 44.0774L38.8047 48.086L41.14 45.9324L44.7468 48.8982V50.1584H40.5282L38.454 52.4553L39.1899 53.4192V57.5675L50.207 57.7204L39.3975 63.9064L37.2709 57.976H30.4617L28.2755 63.4227L22.7986 60.2371V57.5663H28.3876V54.3425H33.9766V49.4118H34.9761L32.8662 47.1161L30.9793 49.2315H31.6055V50.2659H26.7584L24.3205 52.2319V53.9364H21.6881L19.5425 56.0111V57.0897L20.2104 57.6021H18.4321V46.1546L18.4309 46.1558ZM18.4702 45.1919V40.8178H50.1509V50.1596H49.3697V42.8197C49.3518 42.2989 48.9284 41.8964 48.4084 41.8964C47.8884 41.8964 47.5079 42.2464 47.4483 42.7456V50.1596H46.9282V42.8591C46.7935 42.293 46.2878 41.9358 45.7057 42.0039C45.2119 42.0612 44.8613 42.3706 44.7456 42.8591V47.8244L41.1388 44.8945L38.8035 47.0839L34.344 43.2282L31.3097 45.1178L26.6486 41.2992L23.1325 43.9293L21.836 42.9702L18.469 45.1919H18.4702ZM32.0862 49.382H33.0129V50.1225H32.0862V49.382ZM32.7529 48.0848L33.5699 48.8218H32.1243L32.7529 48.0848ZM33.3111 51.0841V53.7524H28.6464V53.1218C28.9291 53.2424 29.1271 53.2627 29.4241 53.203C29.7747 53.129 29.9799 52.9976 30.2005 52.7145L31.9419 51.0853H33.3123L33.3111 51.0841ZM26.9838 50.9001H30.977L29.3513 52.3788H25.1327L26.9838 50.9001ZM24.6854 53.0489H28.0942V53.6748H24.6854V53.0489ZM39.9688 56.8664V53.1218L41.0852 52.1949L43.1175 53.7955V56.8664H39.9688ZM39.5299 52.5281L40.8204 50.8643H45.4075V42.895H46.1136V50.8643H48.1901V42.895H48.7412V50.8643H50.1509V53.1218H43.5958L41.0864 51.1963L39.5311 52.5281H39.5299ZM27.7984 54.8286V57.0157L25.2412 57.0109L27.7984 54.8298V54.8286ZM24.2382 57.0097H21.7263V55.5692H20.6553L21.7263 54.7188H26.7965L24.2382 57.0109V57.0097ZM20.2474 56.3826H21.2838V56.9034H20.2474V56.3826ZM20.6147 58.8671L19.5818 58.314H21.3566L20.6147 58.8671ZM22.17 58.9793V59.8298L21.5772 59.4619L22.17 58.9781V58.9793ZM30.9782 58.83H36.7556L38.7689 64.2456L38.194 64.6135L36.0877 59.352H31.6043L29.7747 64.2456L28.9804 63.7583L30.977 58.8288L30.9782 58.83ZM32.2758 60.0555H35.4914L36.3811 61.9451L37.6239 65.0208L34.3583 66.7229L30.2745 64.6518L31.3873 61.9451L32.277 60.0555H32.2758ZM45.5208 54.0117H45.9335V55.2706H45.5208V54.0117ZM47.335 53.9722H47.7452V55.2706H47.335V53.9722ZM49.0036 53.9722H49.4103V55.2706H49.0036V53.9722ZM43.9298 54.0117H45.0068V54.9768C45.0342 55.3339 45.3133 55.5967 45.6711 55.6038C46.0516 55.6134 46.3629 55.3196 46.3736 54.9409V54.0117H46.7422V55.0162C46.8161 55.3638 47.0916 55.6003 47.4483 55.6038C47.8287 55.6134 48.1376 55.3554 48.1901 54.9768L48.4478 54.0117V55.0162C48.4871 55.3709 48.7555 55.6253 49.1157 55.6433C49.4938 55.6636 49.811 55.3876 49.8551 55.0162V54.0117H50.2237V56.8664H43.9298V54.0117ZM17.6568 40.1477H50.8511V58.0907L34.3571 67.6558L17.6568 58.0907V40.1477ZM31.3861 61.9451H36.3799L35.1932 65.759H32.568L31.3849 61.9451H31.3861ZM32.4345 62.7442H35.3351L34.6457 64.9623H33.1226L32.4345 62.7442ZM26.8001 22.7339L26.4709 21.6219H27.313V22.7339H26.8001ZM23.7253 21.6219H24.5864L24.3252 22.7339H23.7253V21.6219ZM24.485 25.2064L24.788 23.9331L25.1339 23.4375V25.8216C25.1339 25.8216 25.1375 25.7941 24.4862 25.2064M25.9091 25.9422L26.131 23.4375L26.2479 23.926L26.583 25.3306L25.9091 25.9422ZM26.1656 26.758L26.8013 26.248L27.1341 27.6311L26.1656 26.758ZM26.9897 28.5533H25.9091V27.5738L26.9897 28.5533ZM25.1339 27.6909V28.5533H24.1869L25.1339 27.6909ZM25.0051 26.758L23.8708 27.7864L23.9734 27.3409L24.2739 26.0939L25.0051 26.7592V26.758ZM24.4218 35.4046L25.1327 34.6198V36.046L24.4218 35.4046ZM25.9091 35.96V34.6473L26.5592 35.2374L25.9091 35.96ZM22.7497 33.8972L23.7921 32.7422L24.887 33.7264L23.8458 34.8826L22.7497 33.8984V33.8972ZM24.3145 32.1629L25.1339 31.3674V32.8975L24.3145 32.1617V32.1629ZM25.9091 32.5929V31.5107L26.4387 32.0052L25.9091 32.5929ZM25.9855 33.6738L27.01 32.5248L28.1061 33.515L27.0804 34.6509L25.9855 33.6738ZM27.6553 35.1753L28.6667 34.0513L29.2845 36.6444L27.6553 35.1753ZM28.0286 31.3674L28.3363 32.6669L27.5348 31.9455L28.0286 31.3662V31.3674ZM22.4992 30.628H22.0925L21.8587 29.2902H22.8093L22.4992 30.628ZM28.3017 29.2902H29.1843L28.9446 30.628H28.6166L28.3017 29.2902ZM25.1804 30.628H23.1874L23.4987 29.2902H25.1804V30.628ZM25.859 29.2902H27.6111L27.9224 30.628H25.859V29.2902ZM17.5614 16.8764H33.329V38.7837H17.5614V16.8764ZM27.3857 38.0742L26.0928 36.9096L27.1341 35.7534L29.6256 38.0742H27.3857ZM22.0221 38.0742L23.9054 35.9851L24.9967 36.9693L24.0032 38.0742H22.0233H22.0221ZM21.4102 38.0742L22.888 31.9264L23.2172 32.2178L22.6769 32.8222L22.2702 34.5147L23.3234 35.4631L21.5808 37.4029L21.4102 38.0742ZM18.339 17.5775H32.5501V38.0742H30.3317L28.8015 31.3674H29.7914L30.0884 28.5533H28.155L26.9897 23.4386H27.7781L28.0715 20.916H26.4149L25.9616 18.9523H25.2257L24.7594 20.916H22.9703L23.2661 23.4386H24.1666L22.9608 28.5533H20.9534L21.2492 31.3674H22.2952L20.7113 38.0742H18.3414V17.5775H18.339ZM42.7108 20.1181V21.8883L40.6868 21.3723C41.072 20.6401 41.8318 20.1372 42.7108 20.1169M45.1141 22.4903L43.4109 22.0626V20.2113C44.3937 20.4896 45.1141 21.4212 45.1141 22.4903ZM43.4109 24.7346V22.7889L45.0056 23.1926C44.7647 23.9367 44.1647 24.5208 43.4109 24.7346ZM40.4137 22.4711C40.4137 22.323 40.4316 22.1809 40.453 22.0388L42.7108 22.6157V24.8242C41.4394 24.7919 40.4137 23.7528 40.4137 22.4711ZM43.4109 27.1283V25.6519C44.0335 25.7427 44.4892 26.0378 44.4892 26.3865C44.4892 26.7353 44.0335 27.0387 43.4109 27.1295M41.5455 26.3853C41.5455 26.0222 42.0441 25.7105 42.7108 25.64V27.1378C42.0441 27.0638 41.5455 26.7556 41.5455 26.3841M34.9928 16.8764H50.7592V38.7837H34.9928V16.8764ZM47.7178 38.0742L44.8064 29.0334H43.4109V27.9321C44.4987 27.7984 45.3181 27.1617 45.3181 26.3997C45.3181 25.8753 44.9257 25.4059 44.3246 25.1252C45.2298 24.5913 45.8369 23.6011 45.8369 22.4711C45.8369 20.7726 44.4617 19.3931 42.7633 19.3931C41.5241 19.3931 40.453 20.1324 39.9688 21.1907L39.4631 21.0641L39.6957 20.2841L38.9419 20.0655L38.3121 22.2131L39.0671 22.4317L39.2711 21.7449L39.7553 21.8644C39.7171 22.0603 39.698 22.2645 39.698 22.4723C39.698 23.6907 40.4041 24.7442 41.4334 25.2423C40.9599 25.5289 40.6558 25.9422 40.6558 26.4009C40.6558 27.194 41.5575 27.8557 42.7132 27.9477V29.0346H41.3249L38.4123 38.0754H35.7728V17.5787H49.9851V38.0754H47.7202L47.7178 38.0742ZM43.4109 38.0742V29.6975H44.2804L46.9759 38.0742H43.4109ZM39.1482 38.0742L41.8509 29.6975H42.712V38.0742H39.1494H39.1482ZM11.7255 13.1688V10.6676C11.7255 10.3213 11.9449 10.2114 12.2741 10.2114H13.4191C14.4472 10.2114 15.3883 10.5828 15.3883 11.923C15.3883 13.0016 14.6571 13.6299 13.4048 13.6299H12.2741C11.9449 13.6299 11.7255 13.5224 11.7255 13.1688ZM12.6641 10.8396H13.4513C14.1395 10.8396 14.4484 11.2469 14.4484 11.923C14.4484 12.4509 14.2075 13.0016 13.4549 13.0016H12.6641V10.8396ZM15.9274 13.1688V10.6676C15.9274 10.3213 16.1456 10.2114 16.476 10.2114H18.6837C18.9604 10.2114 19.1596 10.2735 19.1596 10.5255C19.1596 10.7775 18.9616 10.8396 18.6837 10.8396H16.8613V11.5826H18.4583C18.7052 11.5826 18.9008 11.6399 18.9008 11.8824C18.9008 12.1249 18.704 12.1786 18.4583 12.1786H16.8613V13.0028H18.7278C19.001 13.0028 19.199 13.0697 19.199 13.3181C19.199 13.5666 19.001 13.6311 18.7278 13.6311H16.476C16.1444 13.6311 15.9274 13.5236 15.9274 13.17M21.1109 13.3014V10.5386C21.1109 10.3081 21.291 10.1504 21.5772 10.1504C21.8635 10.1504 22.0507 10.3081 22.0507 10.5386V13.3014C22.0507 13.5379 21.8671 13.6932 21.5772 13.6932C21.2874 13.6932 21.1109 13.5379 21.1109 13.3014ZM22.733 13.3169V10.6067C22.733 10.2854 22.9178 10.1504 23.3222 10.1504C23.5201 10.1504 23.6871 10.2114 23.7897 10.3547L25.4333 12.5513L25.45 10.5267C25.45 10.2747 25.6241 10.1516 25.8996 10.1516C26.1751 10.1516 26.3516 10.2747 26.3516 10.5267V13.2082C26.3516 13.5164 26.1966 13.6932 25.7994 13.6932C25.5 13.6932 25.401 13.6394 25.2842 13.4782L23.649 11.3473L23.6346 13.3181C23.6346 13.5689 23.4641 13.6932 23.185 13.6932C22.9059 13.6932 22.733 13.5689 22.733 13.3181M30.8625 12.1416V13.4292C30.8625 13.5713 30.7325 13.692 30.5452 13.692C30.2733 13.692 30.1957 13.551 30.1421 13.2488C29.8689 13.5295 29.5016 13.7123 28.9183 13.7123C27.4597 13.7123 26.9015 12.8833 26.9015 11.9242C26.9015 10.7704 27.7733 10.1313 29.0567 10.1313C30.0955 10.1313 30.6478 10.6485 30.6478 10.9531C30.6478 11.2219 30.4116 11.2959 30.2089 11.2959C29.7449 11.2959 29.9202 10.7584 29.0006 10.7584C28.353 10.7584 27.8461 11.112 27.8461 11.9732C27.8461 12.648 28.248 13.1127 29.015 13.1127C29.5099 13.1127 29.9476 12.832 29.9906 12.4127H29.3823C29.1748 12.4127 28.9553 12.3506 28.9553 12.1117C28.9553 11.9242 29.0853 11.8119 29.3227 11.8119H30.482C30.7539 11.8119 30.8625 11.9278 30.8625 12.1404M31.559 13.1688V10.6676C31.559 10.3213 31.7749 10.2114 32.1065 10.2114H34.3153C34.5885 10.2114 34.7912 10.2735 34.7912 10.5255C34.7912 10.7775 34.5897 10.8396 34.3153 10.8396H32.4965V11.5826H34.0911C34.3356 11.5826 34.5288 11.6399 34.5288 11.8824C34.5288 12.1249 34.3356 12.1786 34.0911 12.1786H32.4965V13.0028H34.3595C34.6326 13.0028 34.8354 13.0697 34.8354 13.3181C34.8354 13.5666 34.6338 13.6311 34.3595 13.6311H32.1053C31.7737 13.6311 31.5578 13.5236 31.5578 13.17M35.2683 13.3169V10.6067C35.2683 10.2854 35.4592 10.1504 35.8623 10.1504C36.0555 10.1504 36.2273 10.2114 36.3322 10.3547L37.9782 12.5513L37.9913 10.5267C37.9913 10.2747 38.1606 10.1516 38.4397 10.1516C38.7188 10.1516 38.8918 10.2747 38.8918 10.5267V13.2082C38.8918 13.5164 38.7331 13.6932 38.3396 13.6932C38.0366 13.6932 37.9412 13.6394 37.8207 13.4782L36.1891 11.3473L36.176 13.3181C36.176 13.5689 36.003 13.6932 35.7239 13.6932C35.4448 13.6932 35.2683 13.5689 35.2683 13.3181M39.5704 13.3014V10.5386C39.5704 10.3081 39.7577 10.1504 40.0439 10.1504C40.3302 10.1504 40.5139 10.3081 40.5139 10.5386V13.3014C40.5139 13.5379 40.3266 13.6932 40.0439 13.6932C39.7613 13.6932 39.5704 13.5379 39.5704 13.3014ZM41.2343 13.1688V10.6676C41.2343 10.3213 41.4525 10.2114 41.7865 10.2114H43.9906C44.2673 10.2114 44.4677 10.2735 44.4677 10.5255C44.4677 10.7775 44.2673 10.8396 43.9906 10.8396H42.1753V11.5826H43.7664C44.0145 11.5826 44.2089 11.6399 44.2089 11.8824C44.2089 12.1249 44.0145 12.1786 43.7664 12.1786H42.1753V13.0028H44.0383C44.3102 13.0028 44.5082 13.0697 44.5082 13.3181C44.5082 13.5666 44.3102 13.6311 44.0383 13.6311H41.7865C41.4513 13.6311 41.2343 13.5236 41.2343 13.17M44.9638 13.3014V10.6688C44.9638 10.3224 45.1821 10.2126 45.5125 10.2126H47.0785C48.1961 10.2126 48.4943 10.7214 48.4943 11.1633C48.4943 11.5336 48.2331 11.8967 47.7882 11.9851C48.2688 12.052 48.3535 12.3387 48.3535 12.6863C48.3535 13.0792 48.4776 13.2238 48.4776 13.3874C48.4776 13.5678 48.2557 13.692 48.0387 13.692C47.5186 13.692 47.484 13.2811 47.484 13.1413C47.484 12.5393 47.3493 12.2993 46.8328 12.2993H45.9061V13.3002C45.9061 13.5367 45.7212 13.692 45.4385 13.692C45.1559 13.692 44.965 13.5367 44.965 13.3002M45.9049 10.8074H46.8698C47.2861 10.8074 47.558 10.9077 47.558 11.2708C47.558 11.6566 47.2014 11.7319 46.8412 11.7319H45.9049V10.8074ZM48.8557 11.8812C48.8557 10.8767 49.5868 10.1301 50.9429 10.1301C52.299 10.1301 53.0278 10.8767 53.0278 11.8812C53.0278 12.8857 52.3539 13.7111 50.9429 13.7111C49.4616 13.7111 48.8557 12.9108 48.8557 11.8812ZM49.7943 11.8812C49.7943 11.2219 50.176 10.7584 50.9429 10.7584C51.7098 10.7584 52.0903 11.2219 52.0903 11.8812C52.0903 12.5405 51.7933 13.084 50.9429 13.084C50.0925 13.084 49.7943 12.5322 49.7943 11.8812ZM54.9182 11.5061L55.703 11.6507C56.5653 11.8119 56.7812 12.2336 56.7812 12.6313C56.7812 13.2476 56.2171 13.7111 55.0852 13.7111C53.8901 13.7111 53.3581 13.213 53.3581 12.8427C53.3581 12.6564 53.5251 12.5238 53.7541 12.5238C54.2658 12.5238 54.1322 13.1413 55.0852 13.1413C55.5718 13.1413 55.8414 12.9156 55.8414 12.691C55.8414 12.5501 55.7602 12.4032 55.4358 12.3339L54.3803 12.1105C53.5251 11.9278 53.3701 11.542 53.3701 11.1729C53.3701 10.4168 54.2145 10.1301 55.016 10.1301C55.7519 10.1301 56.6142 10.4694 56.6142 10.9292C56.6142 11.1239 56.4127 11.241 56.1837 11.241C55.7519 11.241 55.8306 10.7309 54.954 10.7309C54.5151 10.7309 54.2765 10.8946 54.2765 11.1311C54.2765 11.3676 54.62 11.4464 54.9158 11.5061M14.5128 54.3903H11.7505C11.5215 54.3903 11.3653 54.2063 11.3653 53.9197C11.3653 53.633 11.5215 53.4491 11.7505 53.4491H14.5128C14.7454 53.4491 14.9004 53.633 14.9004 53.9197C14.9004 54.2063 14.7454 54.3903 14.5128 54.3903ZM14.5247 52.0157H11.8185C11.4929 52.0157 11.3653 51.827 11.3653 51.4269C11.3653 51.2322 11.4249 51.0566 11.5728 50.9527L13.7662 49.3067L11.741 49.296C11.4929 49.296 11.3665 49.1228 11.3665 48.8421C11.3665 48.5614 11.4929 48.3882 11.741 48.3882H14.4162C14.7263 48.3882 14.9004 48.5506 14.9004 48.9472C14.9004 49.2446 14.8468 49.3461 14.6917 49.4632L12.5604 51.102L14.5259 51.1127C14.78 51.1127 14.9004 51.2835 14.9004 51.5666C14.9004 51.8497 14.78 52.0169 14.5259 52.0169M12.7178 45.5789L12.8621 44.7917C13.0279 43.9293 13.4441 43.7131 13.8437 43.7131C14.4591 43.7131 14.9207 44.2769 14.9207 45.4081C14.9207 46.6049 14.4269 47.1412 14.0596 47.1412C13.8688 47.1412 13.734 46.974 13.734 46.7411C13.734 46.2322 14.3494 46.366 14.3494 45.4081C14.3494 44.9267 14.1264 44.6532 13.9033 44.6532C13.7662 44.6532 13.6147 44.7344 13.5467 45.0557L13.3213 46.1176C13.14 46.974 12.7536 47.1304 12.3922 47.1304C11.63 47.1304 11.3474 46.28 11.3474 45.4845C11.3474 44.7451 11.6897 43.878 12.1453 43.878C12.3385 43.878 12.453 44.0786 12.453 44.3056C12.453 44.7451 11.9449 44.6675 11.9449 45.5442C11.9449 45.9826 12.1071 46.2203 12.348 46.2203C12.589 46.2203 12.6558 45.8787 12.7166 45.5801M14.5128 41.4318H12.0809V42.3228C12.0809 42.5939 11.9688 42.8137 11.7517 42.8137C11.5346 42.8137 11.4261 42.5939 11.4261 42.3228V39.6054C11.4261 39.3331 11.5418 39.1145 11.7517 39.1145C11.9616 39.1145 12.0809 39.3331 12.0809 39.6054V40.4941H14.5128C14.7454 40.4941 14.9004 40.6745 14.9004 40.9647C14.9004 41.255 14.7454 41.4318 14.5128 41.4318ZM14.5128 38.03H11.7505C11.5215 38.03 11.3653 37.8508 11.3653 37.563C11.3653 37.2751 11.5215 37.0923 11.7505 37.0923H14.5128C14.7454 37.0923 14.9004 37.2739 14.9004 37.563C14.9004 37.852 14.7454 38.03 14.5128 38.03ZM14.5128 34.6294H12.0809V35.5205C12.0809 35.7892 11.9688 36.0114 11.7517 36.0114C11.5346 36.0114 11.4261 35.7892 11.4261 35.5205V32.7983C11.4261 32.532 11.5418 32.311 11.7517 32.311C11.9616 32.311 12.0809 32.5308 12.0809 32.7983V33.6894H14.5128C14.7454 33.6894 14.9004 33.8757 14.9004 34.1576C14.9004 34.4395 14.7454 34.6294 14.5128 34.6294ZM13.5586 31.2264H11.7505C11.5215 31.2264 11.3653 31.0449 11.3653 30.7546C11.3653 30.4644 11.5215 30.2876 11.7505 30.2876H13.6171C14.0834 30.2876 14.291 29.9651 14.291 29.4312C14.291 28.8973 14.0834 28.5748 13.6171 28.5748H11.7505C11.5215 28.5748 11.3653 28.3908 11.3653 28.1041C11.3653 27.8175 11.5215 27.6323 11.7505 27.6323H13.5586C14.4985 27.6323 14.9195 28.3359 14.9195 29.4324C14.9195 30.5289 14.4985 31.2276 13.5586 31.2276M14.5128 25.1742H12.0809V26.0652C12.0809 26.3328 11.9688 26.549 11.7517 26.549C11.5346 26.549 11.4261 26.3328 11.4261 26.0652V23.3431C11.4261 23.0708 11.5418 22.8546 11.7517 22.8546C11.9616 22.8546 12.0809 23.0708 12.0809 23.3431V24.2306H14.5128C14.7454 24.2306 14.9004 24.4145 14.9004 24.7024C14.9004 24.9902 14.7454 25.1742 14.5128 25.1742ZM13.0923 22.0567C12.088 22.0567 11.3474 21.3245 11.3474 19.9676C11.3474 18.6107 12.0868 17.8785 13.0923 17.8785C14.0978 17.8785 14.9195 18.5546 14.9195 19.9676C14.9195 21.3806 14.124 22.0567 13.0923 22.0567ZM13.0923 21.1154C12.4387 21.1154 11.9747 20.7368 11.9747 19.9664C11.9747 19.196 12.4387 18.8161 13.0923 18.8161C13.7459 18.8161 14.291 19.1112 14.291 19.9664C14.291 20.8216 13.7459 21.1154 13.0923 21.1154ZM54.5687 17.7567H57.0734C57.4133 17.7567 57.5231 17.9765 57.5231 18.3109V19.4611C57.5231 20.4896 57.1545 21.426 55.8199 21.426C54.7357 21.426 54.1131 20.6998 54.1131 19.4432V18.3109C54.1131 17.9776 54.2252 17.7567 54.5687 17.7567ZM56.8981 18.6991V19.4874C56.8981 20.1742 56.4914 20.4884 55.8199 20.4884C55.2927 20.4884 54.7357 20.2483 54.7357 19.4934V18.7003H56.8981V18.6991ZM54.5687 23.201H57.0734C57.4133 23.201 57.5231 23.4195 57.5231 23.7528V25.9637C57.5231 26.242 57.4599 26.4391 57.213 26.4391C56.9661 26.4391 56.8981 26.2408 56.8981 25.9637V24.1422H56.1598V25.7379C56.1598 25.9852 56.1026 26.1799 55.8557 26.1799C55.6088 26.1799 55.5599 25.9852 55.5599 25.7379V24.1422H54.7357V26.0079C54.7357 26.2802 54.6689 26.4845 54.428 26.4845C54.1871 26.4845 54.1131 26.2802 54.1131 26.0079V23.7528C54.1131 23.4195 54.2252 23.201 54.5687 23.201ZM54.4304 30.9744H57.2046C57.5159 30.9744 57.5815 31.23 57.5815 31.4832C57.5815 32.0506 57.4909 32.1903 57.232 32.2871L55.041 33.1077L57.232 33.9283C57.4909 34.0238 57.5815 34.1648 57.5815 34.4562C57.5815 34.9734 57.5171 35.2302 57.2046 35.2302H54.4304C54.236 35.2302 54.0535 35.1143 54.0535 34.8121C54.0535 34.51 54.2348 34.3917 54.4304 34.3917H56.5439L54.2789 33.5042C54.1155 33.4385 54.0535 33.2964 54.0535 33.1041C54.0535 32.9118 54.1143 32.7637 54.2789 32.6992L56.5439 31.8213L54.4304 31.8105C54.236 31.8105 54.0535 31.6946 54.0535 31.3936C54.0535 31.0926 54.2348 30.9756 54.4304 30.9756M54.4411 37.1461H57.1975C57.43 37.1461 57.5815 37.33 57.5815 37.6203C57.5815 37.9105 57.43 38.0885 57.1975 38.0885H54.4411C54.2073 38.0885 54.0535 37.9046 54.0535 37.6203C54.0535 37.336 54.2061 37.1461 54.4411 37.1461ZM54.428 40.0056H57.1319C57.4527 40.0056 57.5803 40.1943 57.5803 40.5968C57.5803 40.7903 57.5231 40.9647 57.3799 41.071L55.1866 42.717L57.2118 42.7277C57.4622 42.7277 57.5791 42.8985 57.5791 43.1804C57.5791 43.4623 57.4622 43.6331 57.2118 43.6331H54.5329C54.2264 43.6331 54.0523 43.4695 54.0523 43.0753C54.0523 42.7755 54.1024 42.6788 54.2574 42.5593L56.3912 40.9217L54.4268 40.911C54.1751 40.911 54.0523 40.7438 54.0523 40.4571C54.0523 40.1704 54.1751 40.0044 54.4268 40.0044M54.6868 45.2576L57.3477 46.4735C57.5219 46.5571 57.5803 46.704 57.5803 46.9358C57.5803 47.3717 57.5422 47.5616 57.2976 47.662L54.6868 48.7979C54.2038 48.8899 54.0535 48.6892 54.0535 48.4467C54.0535 48.2425 54.1131 48.0932 54.2658 48.0251L54.8311 47.7814V46.2681L54.2658 46.0208C54.1131 45.9575 54.0535 45.8261 54.0535 45.6004C54.0535 45.3424 54.1835 45.168 54.3922 45.168L54.688 45.2576H54.6868ZM55.3702 47.5748V46.4735L56.7454 47.0433L55.3702 47.576V47.5748ZM56.2361 51.8198L56.087 52.6034C55.9284 53.4634 55.5038 53.6856 55.1054 53.6856C54.4948 53.6856 54.032 53.1218 54.032 51.9811C54.032 50.8404 54.527 50.2575 54.8943 50.2575C55.0852 50.2575 55.2188 50.4211 55.2188 50.6505C55.2188 51.1641 54.5997 51.0327 54.5997 51.9811C54.5997 52.472 54.8228 52.7384 55.0518 52.7384C55.1889 52.7384 55.344 52.6631 55.4096 52.3394L55.629 51.2764C55.8091 50.4211 56.2004 50.2683 56.5653 50.2683C57.3227 50.2683 57.6018 51.1151 57.6018 51.9166C57.6018 52.6488 57.2631 53.516 56.8074 53.516C56.613 53.516 56.5009 53.3141 56.5009 53.0836C56.5009 52.6488 57.0054 52.73 57.0054 51.8521C57.0054 51.4101 56.8385 51.1736 56.6035 51.1736C56.3685 51.1736 56.2898 51.5165 56.2349 51.8198M16.7313 65.1797L17.9395 62.9867C18.1088 62.6833 18.3498 62.6953 18.6432 62.8565L19.6438 63.4083C20.542 63.9148 21.1848 64.69 20.5384 65.8617C20.0148 66.8053 19.0761 66.9976 17.9741 66.3885L16.9877 65.8402C16.6955 65.6802 16.5607 65.4795 16.7301 65.1785M18.6789 63.5911L19.3671 63.9709C19.9683 64.3066 20.0374 64.8166 19.7166 65.4043C19.4614 65.8665 18.9783 66.2332 18.3235 65.8665L17.6317 65.4879L18.6801 63.5911H18.6789ZM21.0596 67.5793L22.269 65.3887C22.436 65.0841 22.6793 65.1009 22.9727 65.2609L24.9013 66.3323C25.1446 66.4637 25.2854 66.6178 25.1697 66.8376C25.0504 67.0526 24.8381 67.0132 24.6007 66.8806L23.0144 65.9955L22.6507 66.6453L24.0461 67.4169C24.262 67.5399 24.4039 67.6821 24.2835 67.8971C24.1702 68.1061 23.9722 68.0607 23.7527 67.946L22.3608 67.1708L21.9613 67.8935L23.5905 68.7929C23.8338 68.9303 23.9746 69.0855 23.8553 69.3017C23.7384 69.5179 23.5273 69.4773 23.29 69.3447L21.3208 68.2518C21.031 68.0882 20.8902 67.8851 21.0596 67.5805M24.9764 69.758L26.2491 67.4539C26.3648 67.2533 26.5997 67.2055 26.8466 67.344C27.1042 67.4814 27.1925 67.7119 27.072 67.9126L25.8924 70.0423L27.27 70.8032C27.499 70.9369 27.6421 71.14 27.5384 71.3275C27.4322 71.5115 27.1925 71.5079 26.9528 71.3765L25.2353 70.4245C24.9454 70.2621 24.8047 70.0626 24.9764 69.7592M38.0497 72.7202L36.7771 70.4126C36.6065 70.1116 36.7449 69.9097 37.0359 69.7485L38.2966 69.0509C38.9884 68.6639 39.6968 68.6376 40.0666 69.3065C40.3695 69.8452 40.137 70.5022 39.3378 70.9441L38.4254 71.4505L38.8739 72.258C38.9896 72.4658 38.9013 72.6892 38.652 72.8277C38.4016 72.9651 38.1654 72.9197 38.0509 72.7202M37.6681 70.0817L38.3491 69.7067C38.7582 69.4773 39.0802 69.4654 39.246 69.7592C39.3867 70.0172 39.2365 70.3218 38.9001 70.5022L38.1344 70.9298L37.6681 70.0829V70.0817ZM41.8437 70.4723L40.6284 68.2793C40.4614 67.9723 40.6033 67.7705 40.8931 67.6128L42.8158 66.5402C43.0603 66.4088 43.269 66.3634 43.3871 66.582C43.5076 66.803 43.3656 66.9535 43.1223 67.0872L41.5348 67.9711L41.8926 68.6161L43.2881 67.8445C43.5004 67.7239 43.7008 67.6809 43.8177 67.8935C43.9369 68.1049 43.7926 68.253 43.5732 68.3701L42.1836 69.1405L42.5832 69.8667L44.2124 68.9577C44.4498 68.8263 44.6585 68.7881 44.7754 69.0031C44.8994 69.2157 44.7539 69.371 44.5166 69.5096L42.5415 70.5989C42.2516 70.7613 42.0119 70.7757 41.8449 70.4747M45.6222 68.5122L44.346 66.2129C44.1755 65.9083 44.3174 65.7065 44.6072 65.5476L45.9741 64.7843C46.9533 64.2456 47.465 64.5407 47.6761 64.9301C47.8562 65.2526 47.7989 65.6981 47.4495 65.9895C47.9015 65.8128 48.1209 66.0278 48.2879 66.33C48.4752 66.6716 48.6565 66.7396 48.7376 66.8854C48.8223 67.0418 48.6875 67.2557 48.5014 67.3608C48.0482 67.6116 47.8096 67.2712 47.7452 67.1493C47.453 66.6286 47.2252 66.4769 46.7696 66.7277L45.961 67.178L46.4452 68.0559C46.5609 68.2602 46.4702 68.4835 46.2222 68.6245C45.9705 68.7618 45.732 68.7165 45.6222 68.5086M45.237 65.8796L46.085 65.4078C46.4452 65.2096 46.7314 65.1606 46.902 65.4819C47.0904 65.8175 46.8173 66.0576 46.5036 66.2284L45.6807 66.6859L45.2358 65.8796H45.237ZM49.1777 65.4496L48.3022 63.8706C48.1901 63.6651 48.2748 63.4418 48.5277 63.3008C48.7746 63.1623 49.0143 63.2101 49.1252 63.4095L50.0269 65.0471C50.2571 65.4532 50.6352 65.4867 51.1039 65.2215C51.575 64.9623 51.748 64.6255 51.5273 64.217L50.6232 62.5794C50.5028 62.3823 50.5887 62.1518 50.8415 62.0108C51.092 61.8699 51.3317 61.9213 51.4414 62.1267L52.3133 63.7081C52.7701 64.5299 52.367 65.2382 51.4081 65.7722C50.4575 66.2989 49.6345 66.2714 49.1789 65.4485" fill="white"/>
<path id="Vector_2" fill-rule="evenodd" clip-rule="evenodd" d="M165.216 9.09204C167.248 9.09204 168.799 9.39662 169.863 10.0046C171.194 10.7822 171.863 12.0626 171.863 13.8507C171.863 15.3641 171.387 16.5107 170.432 17.2931C169.354 18.1734 167.629 18.613 165.256 18.613C162.882 18.613 161.336 18.2212 160.259 17.4305C159.186 16.6409 158.645 15.4417 158.645 13.8256C158.645 12.1032 159.273 10.8562 160.533 10.0882C161.613 9.41693 163.172 9.09323 165.215 9.09323M161.655 13.8244C161.655 14.8087 161.909 15.5659 162.408 16.107C162.997 16.7365 163.938 17.0458 165.238 17.0458C166.538 17.0458 167.409 16.752 168.014 16.1655C168.56 15.6352 168.831 14.866 168.831 13.865C168.831 12.6825 168.493 11.8369 167.806 11.328C167.206 10.8921 166.349 10.6687 165.238 10.6687C164.046 10.6687 163.158 10.9422 162.557 11.4941C161.953 12.0435 161.655 12.8235 161.655 13.8232M76.7377 67.1659H70.6382V58.0117H76.6637C78.8047 58.0117 80.3766 58.4142 81.3809 59.2085C82.3983 59.9981 82.9076 61.1901 82.9076 62.7764C82.9076 64.0353 82.5331 65.0135 81.7864 65.7266C80.7822 66.6894 79.1005 67.1659 76.7377 67.1659ZM76.6256 59.6051H73.4136V65.5773H76.6256C77.8243 65.5773 78.6389 65.4113 79.0706 65.0816C79.593 64.6707 79.8578 63.8442 79.8578 62.5948C79.8578 61.4935 79.6574 60.7303 79.2531 60.3182C78.7891 59.8464 77.9101 59.6063 76.6268 59.6063M94.911 58.0117V59.6051H90.3596C89.3709 59.6051 88.5956 59.7843 88.0481 60.1533C87.5114 60.5081 87.2359 61.0384 87.2359 61.7455H94.911V63.3365H87.2359C87.2359 64.1464 87.4864 64.7269 87.9754 65.0709C88.4656 65.4077 89.2576 65.5773 90.3596 65.5773H94.911V67.1659H90.2499C88.1817 67.1659 86.6324 66.7873 85.6043 66.0396C84.5893 65.2692 84.0812 64.1786 84.0812 62.7632C84.0812 61.2427 84.5153 60.1008 85.3848 59.3363C86.3855 58.4525 88.0314 58.0129 90.3238 58.0129H94.911V58.0117ZM106.261 65.655V67.1659H102.734C100.864 67.1659 99.5315 66.9617 98.7312 66.546C97.7055 66.0037 97.1903 64.9741 97.1903 63.4644V58.0117H99.9466V63.0427C99.9466 64.0759 100.073 64.7436 100.328 65.0279C100.696 65.4459 101.575 65.655 102.957 65.655H106.261ZM119.024 59.6565H115.808V62.3416H119.168C120.844 62.3416 121.685 61.8984 121.685 61.005C121.685 60.538 121.504 60.2011 121.13 59.9993C120.731 59.7699 120.027 59.6565 119.024 59.6565ZM115.808 67.1659H113.035V58.0117H119.06C121.158 58.0117 122.659 58.2613 123.537 58.7499C124.36 59.2097 124.767 59.961 124.767 61.005C124.767 62.1134 124.297 62.8946 123.357 63.3509C122.498 63.7582 121.102 63.96 119.167 63.96H115.807V67.1659H115.808ZM136.776 58.0117V59.6051H132.225C131.231 59.6051 130.461 59.7843 129.91 60.1533C129.368 60.5081 129.101 61.0384 129.101 61.7455H136.776V63.3365H129.101C129.101 64.1464 129.349 64.7269 129.837 65.0709C130.325 65.4077 131.12 65.5773 132.225 65.5773H136.776V67.1659H132.115C130.045 67.1659 128.496 66.7873 127.465 66.0396C126.45 65.2692 125.942 64.1786 125.942 62.7632C125.942 61.2427 126.379 60.1008 127.25 59.3363C128.251 58.4525 129.897 58.0129 132.186 58.0129H136.776V58.0117ZM142.14 67.1659H139.369V58.0117H146.178C147.747 58.0117 148.904 58.2303 149.667 58.6615C150.422 59.0963 150.805 59.801 150.805 60.7804C150.805 61.429 150.585 61.988 150.148 62.4431C149.702 62.8958 149.044 63.1932 148.159 63.3377L151.41 67.1671H148.306L145.386 63.5898H142.14V67.1671V67.1659ZM145.532 59.6565H142.14V61.9713H145.532C146.462 61.9713 147.107 61.8937 147.462 61.73C147.829 61.5628 148.013 61.2546 148.013 60.8031C148.013 60.4245 147.914 60.1701 147.721 60.0267C147.375 59.7819 146.651 59.6565 145.531 59.6565M153.246 63.5671V58.0117H156.017V63.5133C156.017 64.2957 156.173 64.8439 156.48 65.1521C156.91 65.5905 157.749 65.8079 158.992 65.8079C160.045 65.8079 160.78 65.6633 161.196 65.3707C161.686 65.0315 161.928 64.4127 161.928 63.5121V58.0105H164.688V63.5659C164.688 64.8392 164.352 65.7374 163.696 66.2629C162.851 66.9318 161.279 67.2687 158.992 67.2687C156.704 67.2687 155.204 66.9497 154.352 66.3155C153.613 65.7708 153.246 64.8571 153.246 63.5659M158.812 57.1732H157.56L159.328 55.403H161.964L158.812 57.1732ZM76.7377 50.9191H70.6382V41.7649H76.6637C78.8047 41.7649 80.3766 42.1638 81.3809 42.9617C82.3983 43.7512 82.9076 44.9337 82.9076 46.5247C82.9076 47.7801 82.5331 48.7691 81.7864 49.4798C80.7822 50.4389 79.1005 50.9191 76.7377 50.9191ZM76.6256 43.3583H73.4136V49.3281H76.6256C77.8243 49.3281 78.6389 49.1609 79.0706 48.8288C79.593 48.4227 79.8578 47.595 79.8578 46.348C79.8578 45.2467 79.6574 44.4834 79.2531 44.069C78.7891 43.5936 77.9101 43.3583 76.6268 43.3583M94.911 41.7649V43.3583H90.3596C89.3709 43.3583 88.5956 43.541 88.0481 43.9005C87.5114 44.2577 87.2359 44.7928 87.2359 45.4927H94.911V47.0849H87.2359C87.2359 47.9031 87.4864 48.4789 87.9754 48.8157C88.4656 49.1561 89.2576 49.3281 90.3596 49.3281H94.911V50.9191H90.2499C88.1817 50.9191 86.6324 50.544 85.6043 49.7868C84.5893 49.0235 84.0812 47.9318 84.0812 46.5152C84.0812 44.9935 84.5153 43.8528 85.3848 43.0919C86.3855 42.2068 88.0314 41.7649 90.3238 41.7649H94.911ZM105.507 50.9191H102.662V41.7649H106.758L110.1 48.781L113.458 41.7649H117.515V50.9191H114.779L115.001 43.8002L111.641 50.9191H108.687L105.216 43.7393L105.508 50.9191H105.507ZM120.38 41.7649H123.281V50.9191H120.38V41.7649ZM129.047 50.9191H126.2V41.7649H129.727L135.105 48.3582L134.993 41.7649H137.788V50.9191H134.592L128.938 44.0045L129.047 50.9191ZM141.771 50.9191H138.832L144.38 41.7649H147.315L152.954 50.9191H149.866L148.657 48.7297H142.91L141.773 50.9191H141.771ZM143.811 47.1124H147.755L145.755 43.6091L143.811 47.1124ZM157.91 41.7649H165.2V43.4037H158.351C156.91 43.4037 156.185 43.8038 156.185 44.6041C156.185 44.8919 156.306 45.1237 156.553 45.2909C156.846 45.4927 157.316 45.599 157.946 45.599H161.6C163.179 45.599 164.296 45.8117 164.942 46.2464C165.542 46.6418 165.84 47.2892 165.84 48.1814C165.84 49.0737 165.511 49.7605 164.85 50.1917C164.118 50.6754 162.904 50.9179 161.218 50.9179H153.833V49.2767H160.776C161.618 49.2767 162.2 49.1692 162.515 48.9578C162.777 48.7882 162.904 48.4944 162.904 48.0787C162.904 47.804 162.806 47.6081 162.608 47.4803C162.315 47.2868 161.767 47.1877 160.957 47.1877H157.688C156.185 47.1877 155.069 46.9715 154.348 46.5403C153.638 46.0971 153.281 45.4259 153.281 44.524C153.281 43.6222 153.62 42.945 154.292 42.503C155.038 42.0121 156.246 41.7637 157.91 41.7637M76.7377 34.6711H70.6382V25.5168H76.6637C78.8047 25.5168 80.3766 25.9158 81.3809 26.7137C82.3983 27.5032 82.9076 28.6881 82.9076 30.2743C82.9076 31.5345 82.5331 32.5175 81.7864 33.2294C80.7822 34.1933 79.1005 34.6699 76.7377 34.6699M76.6256 27.1055H73.4136V33.0777H76.6256C77.8243 33.0777 78.6389 32.9152 79.0706 32.5844C79.593 32.1771 79.8578 31.3469 79.8578 30.1011C79.8578 28.9975 79.6574 28.2354 79.2531 27.8185C78.7891 27.3479 77.9101 27.1067 76.6268 27.1067M94.911 25.5168V27.1055H90.3596C89.3709 27.1055 88.5956 27.293 88.0481 27.6549C87.5114 28.012 87.2359 28.54 87.2359 29.2471H94.911V30.8405H87.2359C87.2359 31.6539 87.4864 32.2308 87.9754 32.5677C88.4656 32.9081 89.2576 33.0765 90.3596 33.0765H94.911V34.6699H90.2499C88.1817 34.6699 86.6324 34.2948 85.6043 33.5399C84.5893 32.7731 84.0812 31.6766 84.0812 30.2636C84.0812 28.7454 84.5153 27.6047 85.3848 26.8403C86.3855 25.9564 88.0314 25.5168 90.3238 25.5168H94.911ZM102.662 25.5168H105.564V34.6711H102.662V25.5168ZM111.329 34.6711H108.482V25.5168H112.004L117.386 32.1102L117.278 25.5168H120.066V34.6711H116.872L111.215 27.7564L111.327 34.6711H111.329ZM131.398 33.0036V30.862H127.709V29.2483H134.223V34.6723H128.276C126.296 34.6723 124.792 34.3569 123.781 33.7275C122.612 33.0156 122.032 31.8653 122.032 30.266C122.032 28.5675 122.584 27.336 123.704 26.5608C124.704 25.8632 126.232 25.518 128.276 25.518H134.223V27.1067H128.276C127.272 27.1067 126.523 27.3109 126.032 27.7182C125.443 28.202 125.152 29.019 125.152 30.1632C125.152 31.1164 125.368 31.8104 125.795 32.2511C126.289 32.754 127.111 33.0048 128.276 33.0048H131.397L131.398 33.0036ZM146.639 25.5168V27.1055H142.081C141.089 27.1055 140.321 27.293 139.774 27.6549C139.232 28.012 138.961 28.54 138.961 29.2471H146.639V30.8405H138.961C138.961 31.6539 139.209 32.2308 139.7 32.5677C140.186 32.9081 140.979 33.0765 142.081 33.0765H146.639V34.6699H141.972C139.904 34.6699 138.36 34.2948 137.328 33.5399C136.313 32.7731 135.802 31.6766 135.802 30.2636C135.802 28.7454 136.24 27.6047 137.107 26.8403C138.107 25.9564 139.754 25.5168 142.043 25.5168H146.638H146.639ZM152.069 34.6711H149.225V25.5168H152.75L158.126 32.1102L158.02 25.5168H160.812V34.6711H157.614L151.967 27.7564L152.069 34.6711ZM163.642 25.5168H166.539V34.6711H163.642V25.5168ZM179.429 25.5168V27.1055H174.875C173.886 27.1055 173.112 27.293 172.561 27.6549C172.021 28.012 171.756 28.54 171.756 29.2471H179.427V30.8405H171.756C171.756 31.6539 171.996 32.2308 172.487 32.5677C172.977 32.9081 173.774 33.0765 174.875 33.0765H179.429V34.6699H174.765C172.695 34.6699 171.144 34.2948 170.12 33.5399C169.105 32.7731 168.597 31.6766 168.597 30.2636C168.597 28.7454 169.028 27.6047 169.898 26.8403C170.908 25.9564 172.55 25.5168 174.838 25.5168H179.427H179.429ZM184.789 34.6711H182.019V25.5168H188.832C190.398 25.5168 191.557 25.7283 192.317 26.1666C193.077 26.5942 193.459 27.3002 193.459 28.276C193.459 28.9353 193.237 29.4896 192.797 29.9458C192.358 30.3997 191.698 30.696 190.814 30.8417L194.064 34.6711H190.961L188.045 31.0937H184.79V34.6711H184.789ZM188.186 27.1616H184.789V29.4728H188.186C189.116 29.4728 189.759 29.3976 190.114 29.2363C190.479 29.0655 190.663 28.7514 190.663 28.3011C190.663 27.9308 190.57 27.6752 190.373 27.5295C190.029 27.281 189.306 27.1616 188.186 27.1616ZM198.085 30.0713C198.085 31.0579 198.332 31.8199 198.834 32.3538C199.423 32.9833 200.368 33.2951 201.666 33.2951C202.963 33.2951 203.836 33.0036 204.44 32.4195C204.988 31.8832 205.263 31.1152 205.263 30.1131C205.263 28.9353 204.923 28.0885 204.241 27.5761C203.634 27.1341 202.777 26.9167 201.666 26.9167C200.478 26.9167 199.582 27.1927 198.983 27.7481C198.386 28.2975 198.085 29.0739 198.085 30.0725M201.648 25.3365C203.679 25.3365 205.223 25.6411 206.293 26.2562C207.629 27.0242 208.292 28.3083 208.292 30.0999C208.292 31.6097 207.813 32.7576 206.862 33.5399C205.785 34.419 204.06 34.8598 201.682 34.8598C199.432 34.8598 197.767 34.4668 196.69 33.6773C195.616 32.8878 195.075 31.6862 195.075 30.0713C195.075 28.3489 195.707 27.1055 196.965 26.3315C198.039 25.6662 199.605 25.3365 201.648 25.3365ZM214.153 25.5168H221.439V27.1616H214.594C213.149 27.1616 212.421 27.5582 212.421 28.3548C212.421 28.6403 212.545 28.872 212.792 29.0405C213.085 29.2483 213.548 29.3498 214.189 29.3498H217.842C219.419 29.3498 220.534 29.5648 221.181 29.9972C221.782 30.3985 222.082 31.0435 222.082 31.9358C222.082 32.828 221.75 33.5149 221.092 33.9425C220.356 34.4298 219.142 34.6711 217.457 34.6711H210.073V33.0323H217.013C217.854 33.0323 218.441 32.9212 218.756 32.7098C219.015 32.5402 219.141 32.2499 219.141 31.8343C219.141 31.5595 219.048 31.3613 218.849 31.2358C218.557 31.0423 218.004 30.9396 217.195 30.9396H213.927C212.42 30.9396 211.311 30.7258 210.583 30.2887C209.88 29.8527 209.523 29.1802 209.523 28.276C209.523 27.3718 209.859 26.6982 210.53 26.2574C211.28 25.7617 212.485 25.518 214.152 25.518M70.6382 9.26643H73.5424V18.4207H70.6382V9.26643ZM79.3056 18.4207H76.461V9.26643H79.9902L85.3645 15.8657L85.256 9.26643H88.0481V18.4207H84.8493L79.1983 11.5072L79.3068 18.4207H79.3056ZM94.7512 9.26643H102.04V10.9076H95.1889C93.7445 10.9076 93.0194 11.3113 93.0194 12.1068C93.0194 12.3959 93.1434 12.6276 93.3903 12.796C93.6873 12.9967 94.1465 13.097 94.7858 13.097H98.4366C100.019 13.097 101.132 13.3192 101.783 13.7516C102.381 14.1505 102.68 14.7931 102.68 15.683C102.68 16.5728 102.352 17.2644 101.69 17.7016C100.958 18.183 99.7427 18.4207 98.0538 18.4207H90.6769V16.7783H97.6125C98.4581 16.7783 99.0401 16.678 99.355 16.463C99.6138 16.2898 99.7427 15.9971 99.7427 15.5827C99.7427 15.3103 99.6472 15.1156 99.4492 14.9878C99.157 14.7895 98.6048 14.6904 97.7962 14.6904H94.5281C93.0194 14.6904 91.9101 14.4742 91.1862 14.0406C90.4801 13.6011 90.1223 12.9286 90.1223 12.0316C90.1223 11.1345 90.461 10.4465 91.1289 10.0034C91.8815 9.51249 93.0838 9.26643 94.7512 9.26643ZM110.649 18.4207H107.768V10.8825H103.545V9.29032H114.908V10.8825H110.65V18.4207H110.649ZM116.41 9.26643H119.315V18.4207H116.41V9.26643ZM127.978 18.4207H125.098V10.8825H120.879V9.29032H132.242V10.8825H127.978V18.4207ZM133.71 14.8182V9.26643H136.484V14.7716C136.484 15.5492 136.636 16.0939 136.941 16.4104C137.368 16.8428 138.206 17.0614 139.456 17.0614C140.509 17.0614 141.244 16.9192 141.66 16.629C142.151 16.2898 142.395 15.6663 142.395 14.7716V9.26643H145.15V14.8182C145.15 16.0903 144.821 16.9921 144.16 17.5165C143.315 18.1877 141.747 18.5222 139.457 18.5222C137.167 18.5222 135.671 18.2045 134.811 17.5678C134.078 17.0267 133.711 16.1094 133.711 14.817M153.74 18.4207H150.857V10.8825H146.639V9.29032H158.002V10.8825H153.74V18.4207Z" fill="white"/>
</g>
</svg>
